# xmcd CD database file
#
# Track frame offsets:
#	150
#	27824
#	56918
#	81561
#	117342
#	147011
#
# Disc length: 2345 seconds
#
# Revision: 0
# Processed by: cddbd v1.5.2PL0 Copyright (c) Steve Scherf et al.
# Submitted via: CDex 1.51
#
DISCID=50092706
DTITLE=Cyndi Lauper - The Best Remixes
DYEAR=1989
DGENRE=Blues
TTITLE0=Girls Just Want To Have Fun (Extended Version)
TTITLE1=She Bop (Special Dance Mix)
TTITLE2=Good Enough (Dance Remix)
TTITLE3=Change Of Heart (Extended Version)
TTITLE4=What's Going On (Club Version)
TTITLE5=Money Changes Everythings (Extended Live Version)
EXTD=YEAR: 1989
EXTT0=
EXTT1=
EXTT2=
EXTT3=
EXTT4=
EXTT5=
PLAYORDER=
